<svg xmlns="http://www.w3.org/2000/svg" width="64" height="64" viewBox="0 0 64 64" fill="none">
  <rect width="64" height="64" fill="white"/>
  <path d="M 0,14 A 14 14 0 0 1 14,0" stroke="#4266d5" stroke-width="5"/>
  <path d="M 50,0 A 14 14 0 0 1 64,14" stroke="#4266d5" stroke-width="5"/>
  <path d="M 64,50 A 14 14 0 0 1 50,64" stroke="#4266d5" stroke-width="5"/>
  <path d="M 14,64 A 14 14 0 0 1 0,50" stroke="#4266d5" stroke-width="5"/>
  <rect x="0" y="0" width="5" height="5" fill="#4266d5"/>
  <rect x="59" y="0" width="5" height="5" fill="#4266d5"/>
  <rect x="59" y="59" width="5" height="5" fill="#4266d5"/>
  <rect x="0" y="59" width="5" height="5" fill="#4266d5"/>
  <polygon points="32,8 56,32 32,56 8,32" stroke="#4266d5" stroke-width="5" stroke-linejoin="miter"/>
  <clipPath id="c">
    <polygon points="32,8 56,32 32,56 8,32"/>
  </clipPath>
  <g clip-path="url(#c)">
    <path d="M 16,20 L 48,20 L 16,44 L 48,44" stroke="#4266d5" stroke-width="5" stroke-linecap="square"/>
  </g>
</svg>
